<svg xmlns="http://www.w3.org/2000/svg" version="1.1" viewBox="0.00 0.00 255.00 228.00" width="255.00" height="228.00">
<path fill="#ac2718" d="M 112.73 29.61 L 106.56 35.79 A 2.63 2.60 -22.7 0 0 105.79 37.64 L 105.79 72.29 A 1.07 1.07 0.0 0 1 104.72 73.36 L 63.31 73.36 Q 62.76 73.36 62.75 72.81 Q 62.35 51.31 62.40 29.72 C 62.41 24.07 64.11 22.82 68.35 18.56 Q 75.48 11.41 82.60 4.50 Q 84.31 2.85 86.69 2.85 L 122.22 2.85 A 1.12 1.12 0.0 0 1 123.34 3.97 L 123.34 28.59 A 0.70 0.69 -90.0 0 1 122.65 29.29 L 113.52 29.29 A 1.14 1.13 22.9 0 0 112.73 29.61 Z"/>
<path fill="#ac2718" d="M 146.69 30.44 A 4.29 4.26 -22.5 0 0 143.64 29.19 L 136.31 29.24 A 0.94 0.93 -0.0 0 1 135.37 28.31 L 135.37 3.74 A 0.89 0.89 0.0 0 1 136.26 2.85 L 172.07 2.85 A 5.24 5.24 0.0 0 1 175.81 4.42 Q 186.45 15.32 194.89 23.42 Q 196.34 24.81 196.34 26.97 Q 196.39 69.26 196.34 87.86 Q 196.34 88.93 195.28 88.93 L 153.53 89.21 Q 152.63 89.22 152.63 88.31 L 152.63 36.90 Q 152.63 36.38 152.25 36.00 L 146.69 30.44 Z"/>
<path fill="#ac2718" d="M 74.22 111.96 L 74.22 115.08 A 0.36 0.36 0.0 0 1 73.86 115.44 L 38.03 115.44 A 0.36 0.36 0.0 0 0 37.67 115.80 L 37.77 130.07 A 0.36 0.36 0.0 0 0 38.13 130.43 L 88.29 130.43 A 0.36 0.36 0.0 0 1 88.65 130.79 L 88.65 133.43 A 0.36 0.36 0.0 0 1 88.29 133.79 L 2.90 134.36 A 0.36 0.36 0.0 0 1 2.54 134.00 L 2.54 95.79 A 0.36 0.36 0.0 0 1 2.90 95.43 L 83.10 95.43 A 0.36 0.36 0.0 0 1 83.46 95.79 L 83.46 98.83 A 0.36 0.36 0.0 0 1 83.10 99.19 L 37.76 99.19 A 0.36 0.36 0.0 0 0 37.40 99.55 L 37.49 111.24 A 0.36 0.36 0.0 0 0 37.85 111.60 L 73.86 111.60 A 0.36 0.36 0.0 0 1 74.22 111.96 Z"/>
<path fill="#ac2718" d="M 141.03 121.78 Q 141.02 121.72 141.05 121.67 Q 141.12 121.56 141.16 121.71 Q 141.43 122.63 142.11 123.30 Q 142.48 123.66 142.99 123.64 Q 144.94 123.53 145.40 121.52 A 0.39 0.23 -70.5 0 1 145.81 121.17 Q 145.88 121.23 145.98 121.27 Q 145.99 121.28 146.16 121.09 Q 159.91 105.98 169.06 95.48 A 1.27 1.26 -69.1 0 1 170.01 95.05 L 181.30 95.05 A 0.56 0.55 20.6 0 1 181.72 95.97 L 148.03 133.97 Q 147.69 134.35 147.18 134.35 L 117.29 134.35 A 0.57 0.56 69.6 0 1 116.86 134.15 Q 97.63 111.24 91.78 104.40 Q 88.81 100.92 85.39 96.09 Q 84.92 95.42 85.74 95.42 Q 89.33 95.40 118.24 95.07 Q 119.87 95.05 120.83 96.60 Q 121.97 98.46 122.05 98.56 Q 128.75 106.99 133.40 112.61 Q 135.42 115.05 137.31 117.58 C 138.29 118.89 139.81 120.14 140.78 121.72 A 0.17 0.09 42.0 0 0 141.03 121.78 Z"/>
<path fill="#ac2718" d="M 244.20 124.06 Q 247.94 128.55 251.99 132.75 Q 252.54 133.32 252.42 133.66 A 1.04 0.95 -79.7 0 1 251.50 134.36 L 218.29 134.37 Q 217.85 134.37 217.58 134.03 L 194.60 106.39 A 1.51 1.51 0.0 0 0 192.31 106.35 L 168.11 133.65 A 1.99 1.97 20.5 0 1 166.62 134.32 L 156.36 134.32 Q 153.21 134.32 155.67 132.37 C 157.42 130.98 159.26 128.45 160.40 127.17 Q 183.02 102.00 186.84 97.59 Q 189.12 94.96 192.52 95.01 Q 209.69 95.24 218.72 94.95 Q 219.22 94.93 219.62 95.22 C 221.05 96.23 221.84 97.91 222.76 98.96 Q 234.29 112.15 244.20 124.06 Z"/>
<path fill="#ac2718" d="M 105.81 191.29 L 105.81 199.47 A 0.29 0.28 90.0 0 0 106.09 199.76 L 120.49 199.76 A 1.24 1.23 0.0 0 1 121.73 200.99 L 121.73 223.53 A 1.00 1.00 0.0 0 1 120.73 224.53 L 63.40 224.53 Q 62.80 224.53 62.79 223.93 Q 62.16 190.97 62.55 170.53 C 62.58 168.70 63.76 167.32 65.30 166.26 Q 85.70 152.19 100.57 141.67 C 102.25 140.49 104.47 139.87 106.32 139.87 Q 115.48 139.86 120.60 139.84 A 1.08 1.07 -89.7 0 1 121.67 140.93 Q 121.57 160.53 121.75 176.69 Q 121.77 178.76 121.18 179.78 Q 120.66 180.67 118.97 181.78 Q 115.21 184.25 106.75 189.57 A 2.04 2.03 73.8 0 0 105.81 191.29 Z"/>
<path fill="#ac2718" d="M 177.33 140.93 L 136.29 169.58 A 0.58 0.58 0.0 0 1 135.38 169.11 L 135.38 140.45 A 0.58 0.58 0.0 0 1 135.96 139.87 L 177.00 139.87 A 0.58 0.58 0.0 0 1 177.33 140.93 Z"/>
<rect fill="#ac2718" x="-30.47" y="-12.44" transform="translate(165.94,212.20) rotate(0.1)" width="60.94" height="24.88" rx="1.12"/>
</svg>